<?xml version="1.0" encoding="UTF-8" standalone="no"?>
<!-- Created with Inkscape (http://www.inkscape.org/) -->
<svg
   xmlns:dc="http://purl.org/dc/elements/1.1/"
   xmlns:cc="http://web.resource.org/cc/"
   xmlns:rdf="http://www.w3.org/1999/02/22-rdf-syntax-ns#"
   xmlns:svg="http://www.w3.org/2000/svg"
   xmlns="http://www.w3.org/2000/svg"
   xmlns:sodipodi="http://sodipodi.sourceforge.net/DTD/sodipodi-0.dtd"
   xmlns:inkscape="http://www.inkscape.org/namespaces/inkscape"
   width="584.07813"
   height="586.2254"
   id="svg2"
   sodipodi:version="0.32"
   inkscape:version="0.45.1"
   version="1.0"
   sodipodi:docbase="C:\Documents and Settings\HP_Administrator\Desktop"
   sodipodi:docname="Logotipo de la Universidad de Valladolid.svg"
   inkscape:output_extension="org.inkscape.output.svg.inkscape">
  <defs
     id="defs4" />
  <sodipodi:namedview
     id="base"
     pagecolor="#ffffff"
     bordercolor="#666666"
     borderopacity="1.0"
     inkscape:pageopacity="0.0"
     inkscape:pageshadow="2"
     inkscape:zoom="0.35"
     inkscape:cx="228.79632"
     inkscape:cy="328.62133"
     inkscape:document-units="px"
     inkscape:current-layer="layer1"
     inkscape:window-width="1024"
     inkscape:window-height="708"
     inkscape:window-x="-4"
     inkscape:window-y="-4" />
  <metadata
     id="metadata7">
    <rdf:RDF>
      <cc:Work
         rdf:about="">
        <dc:format>image/svg+xml</dc:format>
        <dc:type
           rdf:resource="http://purl.org/dc/dcmitype/StillImage" />
      </cc:Work>
    </rdf:RDF>
  </metadata>
  <g
     inkscape:label="Capa 1"
     inkscape:groupmode="layer"
     id="layer1"
     transform="translate(1106.7271,-182.95744)">
    <g
       id="g8253">
      <path
         id="rect2239"
         d="M -1106.7271,182.95744 L -522.64899,182.95744 L -522.64899,769.18284 L -1106.7271,769.18284 L -1106.7271,182.95744 z "
         style="fill:#c51857;fill-opacity:1;fill-rule:nonzero;stroke:#3b230b;stroke-width:0;stroke-miterlimit:4;stroke-opacity:1" />
      <g
         id="g8248">
        <path
           style="font-size:375.96426392px;font-style:normal;font-weight:bold;writing-mode:lr-tb;fill:#fefefe;fill-opacity:1;stroke:none;stroke-width:1px;stroke-linecap:butt;stroke-linejoin:miter;stroke-opacity:1;font-family:Arial Black"
           d="M -688.57256,479.09064 L -724.3975,474.85332 C -723.04678,467.82565 -721.09744,462.29647 -718.54947,458.26575 C -716.00153,454.23523 -712.33308,450.73858 -707.54412,447.7758 C -704.10594,445.64002 -699.37841,443.98643 -693.3615,442.81503 C -687.34468,441.64385 -680.83664,441.0582 -673.83737,441.05809 C -662.60186,441.0582 -653.57657,441.76442 -646.76146,443.17675 C -639.94653,444.5893 -634.26735,447.53475 -629.7239,452.01312 C -626.53138,455.1137 -624.01412,459.50604 -622.17211,465.19016 C -620.33033,470.87445 -619.40938,476.30029 -619.40926,481.46768 L -619.40926,529.93851 C -619.40938,535.106 -619.11774,539.15384 -618.53436,542.08206 C -617.95121,545.0103 -616.67723,548.74809 -614.71242,553.29546 L -649.89269,553.29546 C -651.3049,550.47058 -652.22584,548.31747 -652.65554,546.83612 C -653.0854,545.3548 -653.51517,543.02943 -653.94486,539.86004 C -658.85667,545.16532 -663.7377,548.95479 -668.58797,551.22847 C -675.21886,554.26005 -682.92413,555.77584 -691.70379,555.77584 C -703.36919,555.77584 -712.22564,552.74426 -718.27318,546.6811 C -724.32076,540.61795 -727.34454,533.14236 -727.34454,524.2543 C -727.34454,515.91749 -725.16496,509.06199 -720.8058,503.68778 C -716.44665,498.31367 -708.4037,494.3175 -696.67692,491.69926 C -682.61714,488.52995 -673.49975,486.30794 -669.32472,485.03323 C -665.14982,483.75866 -660.72927,482.08785 -656.06305,480.02079 C -656.06313,474.8534 -657.01478,471.23618 -658.91799,469.16911 C -660.82136,467.10221 -664.16747,466.06871 -668.95634,466.06862 C -675.09607,466.06871 -679.7008,467.1711 -682.77059,469.37581 C -685.1651,471.09838 -687.0991,474.33665 -688.57256,479.09064 L -688.57256,479.09064 z M -656.06305,501.2074 C -661.22044,503.27443 -666.59264,505.10027 -672.17966,506.68491 C -679.7929,508.95864 -684.61253,511.19788 -686.63857,513.40262 C -688.7261,515.67634 -689.76984,518.26007 -689.7698,521.15382 C -689.76984,524.46103 -688.74145,527.16533 -686.68462,529.26674 C -684.62788,531.3682 -681.6041,532.41892 -677.61327,532.4189 C -673.43836,532.41892 -669.55502,531.28207 -665.96326,529.00837 C -662.37163,526.73471 -659.82367,523.9615 -658.31938,520.68875 C -656.81524,517.41605 -656.06313,513.16151 -656.06305,507.92511 L -656.06305,501.2074 z "
           id="text3267" />
        <path
           style="font-size:362.38165283px;font-style:normal;font-weight:bold;writing-mode:lr-tb;fill:#fefefe;fill-opacity:1;stroke:none;stroke-width:1px;stroke-linecap:butt;stroke-linejoin:miter;stroke-opacity:1;font-family:Arial Black"
           d="M -908.65766,404.20637 L -869.42027,404.20637 L -869.42027,493.23556 C -869.4204,502.06383 -870.59231,510.39969 -872.93601,518.24318 C -875.27996,526.08674 -878.95485,532.94558 -883.96067,538.81972 C -888.96674,544.69389 -894.21864,548.81938 -899.71639,551.1962 C -907.35563,554.52376 -916.52837,556.18754 -927.23465,556.18754 C -933.42705,556.18754 -940.18363,555.67822 -947.50441,554.65958 C -954.8253,553.64094 -960.94528,551.62064 -965.86438,548.59867 C -970.78356,545.57671 -975.28312,541.28144 -979.36308,535.71286 C -983.4431,530.14432 -986.23543,524.40598 -987.74009,518.49784 C -990.17074,508.99057 -991.38606,500.56982 -991.38605,493.23556 L -991.38605,404.20637 L -952.14866,404.20637 L -952.14866,495.3747 C -952.14871,503.52387 -950.22446,509.89037 -946.3759,514.47421 C -942.52746,519.05812 -937.18875,521.35006 -930.35975,521.35003 C -923.58878,521.35006 -918.279,519.09208 -914.43041,514.57607 C -910.582,510.06014 -908.65775,503.65969 -908.65766,495.3747 L -908.65766,404.20637 z "
           id="text3289" />
        <path
           style="font-size:364.80587769px;font-style:normal;font-weight:bold;writing-mode:lr-tb;fill:#fefefe;fill-opacity:1;stroke:none;stroke-width:1px;stroke-linecap:butt;stroke-linejoin:miter;stroke-opacity:1;font-family:Arial Black"
           d="M -857.66793,403.46989 L -816.16834,403.46989 L -787.27621,511.45424 L -758.82186,403.46989 L -718.54799,403.46989 L -766.17621,553.52209 L -809.16419,553.52209 L -857.66793,403.46989 z "
           id="text3293" />
      </g>
    </g>
  </g>
</svg>
