<svg viewBox="0 0 24 24" fill="none" xmlns="http://www.w3.org/2000/svg">
    <path
        d="M6.00001 21v-5.6574c0-.2268-.03856-.4518-.11402-.6657L3.35382
7.50248c-.20213-.5727.05383-1.2063.59704-1.47791.58384-.29192 1.29396-.06555 1.60114.51041L9.00001
13M18
21v-5.6574c0-.2268.0386-.4518.114-.6657l2.5322-7.17442c.2021-.5727-.0538-1.2063-.5971-1.47791-.5838-.29192-1.2939-.06555-1.6011.51041L15
13m1-6.5c0 2.20914-1.7909 4-4 4-2.20913 0-3.99999-1.79086-3.99999-4S9.79087 2.5 12 2.5c2.2091 0 4
1.79086 4 4Z"
        stroke-linecap="round" stroke-width="1.5" />
    <style>
        path { stroke: #000; }
        @media (prefers-color-scheme: dark) {
        path { stroke: #FFF; }
        }
    </style>
</svg>